<svg xmlns="http://www.w3.org/2000/svg" width="264.101" height="264.041" viewBox="0 0 264.101 264.041">
  <g id="circle_web2ToWeb3" transform="translate(-1720.974 910.26)">
    <g id="Group_437" data-name="Group 437" transform="translate(1720.974 -910.26)">
      <path id="Path_15284" data-name="Path 15284" d="M2035.908-883l1.5-27.259,2.9.389-.956,15.608-.516,8.232.309.042,5.782-16.1,3.633.488,1.328,17.056.309.042,1.675-8.076,3.2-15.308,2.821.38-5.749,26.688-4.676-.628L2046.343-898l-.309-.041-5.45,15.673Z" transform="translate(-1897.932 910.26)" fill="#00ffb0"/>
      <path id="Path_15285" data-name="Path 15285" d="M2087.126-872.327l9.382-25.548,15.739,5.78-.981,2.672-12.665-4.651-3.159,8.6,12.225,4.49-.982,2.672-12.224-4.489-3.28,8.93,12.664,4.651-.981,2.672Z" transform="translate(-1926.711 903.301)" fill="#00ffb0"/>
      <path id="Path_15286" data-name="Path 15286" d="M2149.829-872.57l7.781,4.986a7.613,7.613,0,0,1,3.6,4.575,6.757,6.757,0,0,1-1.082,5.374,5.789,5.789,0,0,1-3.084,2.609,6.427,6.427,0,0,1-3.65.022l-.063.1a7.676,7.676,0,0,1,2.08,3.764,5.933,5.933,0,0,1-1.1,4.46,8.649,8.649,0,0,1-2.122,2.3,7.413,7.413,0,0,1-2.643,1.27,7.3,7.3,0,0,1-2.864.133,7,7,0,0,1-2.772-1.059l-8.765-5.617Zm-5.2,25.609a5.594,5.594,0,0,0,3.535,1.061,3.728,3.728,0,0,0,2.766-1.932l.862-1.346a3.739,3.739,0,0,0,.59-3.3,5.521,5.521,0,0,0-2.43-2.784l-5.187-3.324-5.322,8.306Zm6.315-10.866a5.123,5.123,0,0,0,3.219.975,3.324,3.324,0,0,0,2.49-1.716l.82-1.28a3.38,3.38,0,0,0,.53-2.995,5.05,5.05,0,0,0-2.22-2.534l-4.728-3.03-4.839,7.55Z" transform="translate(-1953.692 889.082)" fill="#00ffb0"/>
      <path id="Path_15287" data-name="Path 15287" d="M2189.818-800.122l-12.837-12.86,2.373-2.369,12.214.645a20.615,20.615,0,0,0,4.922-.285,6.982,6.982,0,0,0,3.737-1.913l.331-.33a5.282,5.282,0,0,0,1.782-3.6,5.047,5.047,0,0,0-1.748-3.655,5.387,5.387,0,0,0-3.61-1.823,7.694,7.694,0,0,0-3.806.961l-1.293-2.841a11.563,11.563,0,0,1,2.427-.907,8.121,8.121,0,0,1,2.675-.218,8.251,8.251,0,0,1,2.826.788,10.216,10.216,0,0,1,2.851,2.085,10.366,10.366,0,0,1,2.134,2.966,7.4,7.4,0,0,1,.714,3.034,7.089,7.089,0,0,1-.609,2.922,8.591,8.591,0,0,1-1.836,2.631,9.319,9.319,0,0,1-2.387,1.749,11.468,11.468,0,0,1-2.73.962,17.045,17.045,0,0,1-3.074.37,30.944,30.944,0,0,1-3.418-.086l-10.063-.7,10.44,10.459Z" transform="translate(-1977.2 864.792)" fill="#00ffb0"/>
      <path id="Path_15288" data-name="Path 15288" d="M2249.57-737.545l.821-2.516,4.509,1.471,2.343,1,.086-.088-1.9-3.231-5.932-11.681,2.364-1.2,5.933,11.681,1.486,3.444.122-.018.577-2.48,1.471-4.508,2.516.821L2260.421-734Z" transform="translate(-2017.943 822.343)" fill="#fff"/>
      <path id="Path_15289" data-name="Path 15289" d="M2254.324-674.932l26.806-4.712,2.9,16.513-2.8.493-2.336-13.287-9.024,1.586,2.255,12.827-2.8.493-2.255-12.827-9.37,1.647,2.336,13.288-2.8.493Z" transform="translate(-2020.658 780.679)" fill="#00ffb0"/>
      <path id="Path_15290" data-name="Path 15290" d="M2288.5-615.877l-.315,7.6q-.207,4.987-3.737,7.3t-10.27,2.033q-6.74-.279-10.066-2.876t-3.12-7.584l.315-7.6Zm-24.658,6.431a5.723,5.723,0,0,0,2.055,5.022,10.669,10.669,0,0,0,6.321,1.921l4.207.174a10.673,10.673,0,0,0,6.458-1.391,5.721,5.721,0,0,0,2.464-4.835l.173-4.169-21.505-.892Z" transform="translate(-2024.396 745.482)" fill="#00ffb0"/>
      <path id="Path_15291" data-name="Path 15291" d="M2279.7-554.088l-15.794-4.178q-1.923-.509-3.461-.794a7.845,7.845,0,0,0-2.742-.08,3.573,3.573,0,0,0-2.044,1.093,6.283,6.283,0,0,0-1.327,2.734,6.3,6.3,0,0,0-.2,3.033,3.573,3.573,0,0,0,1.236,1.96,7.838,7.838,0,0,0,2.423,1.286q1.478.512,3.4,1.021l15.794,4.178-.838,3.167-15.04-3.979a41.961,41.961,0,0,1-5.052-1.639,9.681,9.681,0,0,1-3.347-2.136,5.673,5.673,0,0,1-1.537-3.109,11.033,11.033,0,0,1,.407-4.51,11.039,11.039,0,0,1,1.877-4.122,5.669,5.669,0,0,1,2.874-1.942,9.668,9.668,0,0,1,3.965-.2,41.9,41.9,0,0,1,5.2,1.074l15.04,3.979Z" transform="translate(-2018.837 714.81)" fill="#00ffb0"/>
      <path id="Path_15292" data-name="Path 15292" d="M2231.323-504.372q2.294-4.435,6.633-4.933t10.4,2.635q6.061,3.134,8.163,6.965t-.191,8.264a9.326,9.326,0,0,1-1.937,2.642,7.428,7.428,0,0,1-2.287,1.451,8.6,8.6,0,0,1-2.467.568,20.892,20.892,0,0,1-2.459.045l.146-3.085a12.1,12.1,0,0,0,1.883.052,6.241,6.241,0,0,0,1.756-.343,4.794,4.794,0,0,0,1.547-.912,5.74,5.74,0,0,0,1.288-1.727,5.33,5.33,0,0,0,.029-5.406,11.968,11.968,0,0,0-5.093-4.411l-3.948-2.042a11.978,11.978,0,0,0-6.544-1.606,5.33,5.33,0,0,0-4.394,3.149,5.734,5.734,0,0,0-.665,2.049,4.794,4.794,0,0,0,.15,1.79,6.222,6.222,0,0,0,.737,1.632,11.937,11.937,0,0,0,1.13,1.506l-2.433,1.9a17.564,17.564,0,0,1-1.4-2.042,8.749,8.749,0,0,1-.945-2.332,7.4,7.4,0,0,1-.138-2.705A9.315,9.315,0,0,1,2231.323-504.372Z" transform="translate(-2007.116 685.006)" fill="#00ffb0"/>
      <path id="Path_15293" data-name="Path 15293" d="M2192.84-461.056l7.435,3.2,6.112-7.343-4.492-6.732,2.171-2.607,15.579,23.824-2.769,3.327-26.256-11Zm22.666,9.887.225-.27-7.655-11.343-5.114,6.144Z" transform="translate(-1984.864 665.434)" fill="#00ffb0"/>
      <path id="Path_15294" data-name="Path 15294" d="M2180.769-401.184l-14.954-19.243,2.587-2.01,14.954,19.242,7.174-5.575,1.746,2.248-16.933,13.159-1.747-2.247Z" transform="translate(-1970.926 636.157)" fill="#00ffb0"/>
      <path id="Path_15295" data-name="Path 15295" d="M2122.546-401.236l1.121,2.36-6.128,2.911,9.437,19.864,6.128-2.911,1.121,2.36-15.215,7.228-1.121-2.36,6.128-2.911-9.437-19.864-6.128,2.911-1.121-2.36Z" transform="translate(-1938.064 624.245)" fill="#00ffb0"/>
      <path id="Path_15296" data-name="Path 15296" d="M2066.639-377.408a9.014,9.014,0,0,1,4.394-.025,8,8,0,0,1,3.5,2.02,12.785,12.785,0,0,1,2.654,3.913,29.291,29.291,0,0,1,1.862,5.694,29.351,29.351,0,0,1,.793,5.918,12.787,12.787,0,0,1-.687,4.7,8,8,0,0,1-2.276,3.341,9.017,9.017,0,0,1-3.969,1.887,9.009,9.009,0,0,1-4.394.024,8.006,8.006,0,0,1-3.5-2.019,12.819,12.819,0,0,1-2.659-3.932,29.4,29.4,0,0,1-1.857-5.675,29.308,29.308,0,0,1-.8-5.937,12.8,12.8,0,0,1,.69-4.678,8,8,0,0,1,2.276-3.34A9.01,9.01,0,0,1,2066.639-377.408Zm.634,2.775a5.524,5.524,0,0,0-2.555,1.244,5.309,5.309,0,0,0-1.421,2.185,8.285,8.285,0,0,0-.416,2.995,19.053,19.053,0,0,0,.507,3.7l.99,4.333a19.128,19.128,0,0,0,1.149,3.537,8.3,8.3,0,0,0,1.68,2.536,5.312,5.312,0,0,0,2.229,1.351,5.524,5.524,0,0,0,2.842.01,5.522,5.522,0,0,0,2.556-1.244,5.292,5.292,0,0,0,1.42-2.184,8.282,8.282,0,0,0,.412-3.014,19.2,19.2,0,0,0-.5-3.685l-.99-4.333a19.028,19.028,0,0,0-1.153-3.556,8.26,8.26,0,0,0-1.675-2.517,5.308,5.308,0,0,0-2.229-1.351A5.518,5.518,0,0,0,2067.273-374.633Z" transform="translate(-1911.301 611.016)" fill="#00ffb0"/>
      <path id="Path_15297" data-name="Path 15297" d="M2019.123-347.234l.273,0-.373-23.042,2.963-.048.441,27.213-4.639.075-9.648-22.657-.273,0,.37,22.808-2.963.048-.441-27.213,4.639-.075Z" transform="translate(-1880.47 606.878)" fill="#00ffb0"/>
      <path id="Path_15298" data-name="Path 15298" d="M1927.083-371.036l1.219,2.349-4.209,2.185-2.352.973v.123l3.639.907,12.491,3.954-.8,2.528-12.49-3.954-3.5-1.353-.072.1,1.364,2.15,2.185,4.209-2.349,1.219-5.259-10.131Z" transform="translate(-1829.154 607.586)" fill="#fff"/>
      <path id="Path_15299" data-name="Path 15299" d="M1863.334-413.139l-13.641,23.648-2.41-1.656,7.9-13.5,4.176-7.113-.257-.177-12.427,11.757-3.021-2.075,6.513-15.819-.257-.177-5.14,6.45L1835-399.579l-2.346-1.612,17.177-21.22,3.889,2.671-6.474,15.279.257.177,11.938-11.526Z" transform="translate(-1783.728 636.143)" fill="#00ffb0"/>
      <path id="Path_15300" data-name="Path 15300" d="M1820.6-447.64l-19.861,18.607-11.464-12.236,2.078-1.946,9.223,9.846,6.687-6.265-8.9-9.5,2.077-1.946,8.9,9.5,6.943-6.5-9.224-9.846,2.077-1.946Z" transform="translate(-1759.35 657.194)" fill="#00ffb0"/>
      <path id="Path_15301" data-name="Path 15301" d="M1765.352-472.856l-4.722-7.944a7.606,7.606,0,0,1-1.167-5.7,6.754,6.754,0,0,1,3.374-4.319,5.787,5.787,0,0,1,3.926-.95,6.428,6.428,0,0,1,3.273,1.615l.1-.06a7.679,7.679,0,0,1-.173-4.3,5.933,5.933,0,0,1,2.98-3.495,8.635,8.635,0,0,1,2.927-1.1,7.407,7.407,0,0,1,2.932.049,7.3,7.3,0,0,1,2.62,1.164,7.006,7.006,0,0,1,2,2.189l5.319,8.949Zm5.614-13.679a5.128,5.128,0,0,0-2.441-2.314,3.323,3.323,0,0,0-2.994.419l-1.307.777a3.378,3.378,0,0,0-1.815,2.44,5.05,5.05,0,0,0,.849,3.26l2.869,4.826,7.71-4.582Zm10.514-6.884a5.592,5.592,0,0,0-2.684-2.532,3.726,3.726,0,0,0-3.339.488l-1.374.817a3.738,3.738,0,0,0-2.008,2.69,5.526,5.526,0,0,0,.925,3.578l3.148,5.3,8.48-5.041Z" transform="translate(-1742.51 679.31)" fill="#00ffb0"/>
      <path id="Path_15302" data-name="Path 15302" d="M1746.518-535.949a6.272,6.272,0,0,0-2.534-3.661,4.136,4.136,0,0,0-3.525-.338l-.258.085a3.894,3.894,0,0,0-2.665,2.335,5.669,5.669,0,0,0,.095,3.766,5.969,5.969,0,0,0,2.011,3.053,7.4,7.4,0,0,0,3.078,1.306l-1.01,2.919a10.555,10.555,0,0,1-1.928-.679,8.556,8.556,0,0,1-1.895-1.2,9.328,9.328,0,0,1-1.682-1.868,10.446,10.446,0,0,1-1.3-2.711,11.554,11.554,0,0,1-.6-3.251,7.965,7.965,0,0,1,.428-2.933,6.226,6.226,0,0,1,1.5-2.36,6.434,6.434,0,0,1,2.571-1.524,6.506,6.506,0,0,1,2.384-.354,5.724,5.724,0,0,1,2.091.5,6.84,6.84,0,0,1,1.788,1.2,8.376,8.376,0,0,1,1.422,1.707l.148-.049a8.943,8.943,0,0,1,.041-2.312,6.931,6.931,0,0,1,.713-2.2,6.272,6.272,0,0,1,1.521-1.876,7.112,7.112,0,0,1,2.425-1.311,7.532,7.532,0,0,1,3.273-.36,7.216,7.216,0,0,1,2.972,1.033,9.023,9.023,0,0,1,2.466,2.308,11.971,11.971,0,0,1,1.757,3.465,11.75,11.75,0,0,1,.624,3.14,9.549,9.549,0,0,1-.232,2.663,9.789,9.789,0,0,1-.822,2.241,13.379,13.379,0,0,1-1.185,1.888l-2.546-1.748a13.765,13.765,0,0,0,1.054-1.537,6.349,6.349,0,0,0,.672-1.638,6.354,6.354,0,0,0,.179-1.886,8.408,8.408,0,0,0-.448-2.233,6.594,6.594,0,0,0-2.643-3.789,4.719,4.719,0,0,0-4.074-.28l-.3.1a4.731,4.731,0,0,0-3.086,2.6,6.635,6.635,0,0,0,.149,4.692l1.012,3.074-2.7.89Z" transform="translate(-1728.462 706.779)" fill="#00ffb0"/>
      <path id="Path_15303" data-name="Path 15303" d="M1724.042-629.685l24.366.439-.059,3.274-24.366-.439-.164,9.084-2.846-.051.386-21.442,2.846.051Z" transform="translate(-1720.974 757.741)" fill="#00ffb0"/>
      <path id="Path_15304" data-name="Path 15304" d="M1757.062-684.522l-8.081.436-2.219,9.292,7.013,4.039-.788,3.3-24.534-14.438,1.005-4.21,28.41-1.794Zm-24.7,1.2-.082.341,11.894,6.768,1.856-7.775Z" transform="translate(-1725.176 785.317)" fill="#00ffb0"/>
      <path id="Path_15305" data-name="Path 15305" d="M1769.065-719.116l-24.47-11.914,1.433-2.945,21.911,10.668,5.649-11.6,2.559,1.246Z" transform="translate(-1734.246 811.733)" fill="#00ffb0"/>
      <path id="Path_15306" data-name="Path 15306" d="M1796.07-780.956l-21.331-16.9L1785.153-811l2.231,1.768L1779-798.659l7.182,5.691,8.088-10.207,2.231,1.768-8.089,10.207,7.457,5.909,8.379-10.573,2.231,1.768Z" transform="translate(-1751.184 854.487)" fill="#00ffb0"/>
      <path id="Path_15307" data-name="Path 15307" d="M1822.094-842.437l-.211.173,14.572,17.852-2.3,1.874-17.211-21.084,3.595-2.934,21.613,11.8.212-.173-14.424-17.67,2.3-1.874,17.21,21.084-3.594,2.934Z" transform="translate(-1774.901 878.913)" fill="#00ffb0"/>
      <path id="Path_15308" data-name="Path 15308" d="M1877.281-882.029l10.985,21.754-2.923,1.476-10.985-21.754-8.11,4.1L1864.965-879l19.143-9.667,1.283,2.541Z" transform="translate(-1801.881 898.126)" fill="#00ffb0"/>
      <path id="Path_15309" data-name="Path 15309" d="M1949.707-883.357l-3.576-9.632-1.951-7.671,3.326-.846,1.95,7.671,1.46,10.17Zm2.93,8.991a3.06,3.06,0,0,1-2.336-.09,2.307,2.307,0,0,1-1.037-1.466l-.173-.68a2.309,2.309,0,0,1,.21-1.784,3.06,3.06,0,0,1,2.01-1.2,3.061,3.061,0,0,1,2.336.09,2.311,2.311,0,0,1,1.037,1.466l.173.68a2.306,2.306,0,0,1-.211,1.784A3.061,3.061,0,0,1,1952.637-874.366Z" transform="translate(-1846.391 905.341)" fill="#fff"/>
    </g>
  </g>
</svg>
